<?xml version="1.0" encoding="UTF-8"?>
<svg width="1200pt" height="1200pt" version="1.1" viewBox="0 0 1200 1200" xmlns="http://www.w3.org/2000/svg">
 <path d="m464.74 353.07c-7.6953 1.1211-15.535 3.5703-23.441 7.3477-6.5078 3.0781-9.0273 3.918-13.996 4.4766-17.633 2.2383-37.785 9.6562-52.621 19.383-28.758 19.031-48.562 50.312-54.02 85.578-1.3281 8.8164-1.3281 301.8 0 311.03 3.0078 20.223 11.688 40.863 24.141 57.309 5.1797 6.8555 17.004 18.684 24.211 24.141 12.176 9.2383 28.621 17.074 44.012 20.992 14.414 3.707 6.5781 3.5703 187.74 3.5703 148.97 0 168.85-0.14062 175.14-1.1211 36.316-5.5977 67.945-26.52 87.328-57.797 6.0195-9.7266 11.824-23.512 14.836-35.195 3.2891-12.875 3.2188-8.8867 3.2188-166.96 0-131.69-0.14062-149.25-1.1211-155.55-3.0078-19.383-9.5156-36.176-20.293-52.34-6.7891-10.145-22.461-25.82-32.469-32.469-16.305-10.848-33.449-17.352-53.109-20.293-5.8086-0.91016-8.5352-1.6797-12.875-3.8477-3.0078-1.5391-8.2578-3.707-11.688-4.8984-12.875-4.2695-7.3477-4.1289-150.44-4.0586-71.793 0.070312-132.32 0.35156-134.56 0.69922zm270.66 14.344c28.621 4.9688 48.562 23.93 56.188 53.461 1.1211 4.1992 1.1914 15.742 1.1914 144.5v139.95l-1.6094 6.4375c-2.168 8.6055-8.6758 21.48-14.066 27.918-7.6289 9.168-19.594 17.422-30.578 21.133-11.195 3.8477-4.8984 3.707-148.97 3.5l-132.95-0.21094-5.3164-1.5391c-12.387-3.5-22.043-8.957-30.648-17.285-8.7461-8.4688-14.906-18.613-18.754-31l-1.9609-6.1562-0.21094-139.95c-0.14063-99.504 0-141.14 0.55859-144.14 1.1211-5.8789 3.9883-14.555 6.7188-20.012 2.8008-5.668 9.5156-14.625 14.066-18.895 7.2773-6.7891 18.055-12.875 27.781-15.676 10.566-3.0781 7.9062-3.0078 143.16-3.0781 114.2-0.070313 129.8 0.070313 135.4 1.0508zm-324.82 17.285c-3.8477 4.1992-11.055 17.145-12.945 23.23-2.3086 7.6289-3.4297 13.855-4.1289 22.742-0.48828 6.8555-0.62891 53.531-0.48828 143.1 0.28125 132.32 0.28125 132.95 1.75 138.9 2.8008 11.266 6.7891 20.922 11.617 27.918 1.9609 2.9375 2.0273 3.1484 0.98047 5.2461-2.168 4.4766-48.84 85.438-49.332 85.578-0.55859 0.21094-4.4766-4.9688-7.7656-10.285-4.1992-6.7891-10.426-20.434-12.246-26.941-4.4766-15.812-4.1289-3.8477-4.4766-162.34-0.14062-106.01 0-146.66 0.55859-153.59 1.8906-21.344 8.8164-39.676 21.48-56.539 10.637-14.066 24.98-25.891 40.375-33.098 6.4375-3.0078 15.254-6.2266 15.742-5.8086 0.21094 0.14062-0.35156 0.98047-1.1211 1.8906zm386.04 0.35156c5.9492 2.3086 15.812 7.207 20.57 10.285 15.113 9.6562 31.066 27.43 39.184 43.664 2.9375 5.8086 6.2266 15.465 8.6758 25.121l1.8906 7.4883 0.21094 146.95c0.14062 103.84 0 149.18-0.55859 154.64-1.4688 14.766-4.6875 25.961-10.848 38.484-3.918 7.8359-11.477 19.594-12.594 19.594-0.35156 0-11.895-19.594-25.609-43.523l-24.98-43.594 3.3594-5.5977c4.1992-6.9258 7.0664-13.785 9.5859-22.812l1.9609-6.9258 0.21094-138.55c0.14062-93.066 0-140.65-0.48828-144.91-1.4688-12.805-6.7891-26.52-14.484-37.574-4.3398-6.1562-4.4766-6.0195 3.918-2.7305zm-365.61 380.45c9.168 5.8789 19.453 9.8672 31.348 12.035 5.8789 1.1211 17.145 1.2578 131.69 1.4688 84.387 0.14062 128.19 0 134.35-0.55859 20.293-1.6094 34.637-7.2773 49.82-19.523 3.1484-2.5195 4.4766-3.2188 4.9688-2.6602 0.35156 0.48828 10.777 18.473 23.23 40.023 12.387 21.551 23.512 40.723 24.629 42.613 2.4492 4.0586 2.5898 3.7773-6.1562 10.637-10.285 8.0469-22.391 14.273-35.828 18.473-15.395 4.7578-1.6094 4.4102-182.77 4.6875-170.73 0.28125-174.72 0.28125-186.9-2.6602-17.562-4.1289-36.527-13.855-48.633-24.91l-2.9375-2.6602 24.422-42.336c13.363-23.301 24.699-42.895 25.121-43.594 0.69922-1.1211 1.1914-0.83984 5.457 2.7305 2.5898 2.2383 6.2969 5.0391 8.1875 6.2266z"/>
 <path d="m603.99 427.87c-6.2266 1.6094-12.105 6.4375-15.254 12.594-2.3789 4.6875-2.6602 12.387-0.62891 17.844 1.8203 4.8984 5.3164 8.5352 48.211 49.75l26.238 25.121-188.16 0.70312-3.1484 1.5391c-4.3398 2.168-9.5859 6.8555-11.195 9.9375-4.7578 9.375-2.8672 21.41 4.3398 27.711 1.6797 1.4688 4.7578 3.4297 6.8555 4.4766l3.8477 1.8203 187.46 0.70312-26.238 25.121c-42.895 41.215-46.391 44.852-48.211 49.75-4.1289 11.266 1.2578 24.211 12.246 29.109 2.6602 1.1914 4.8984 1.6094 9.0977 1.6094 9.7266 0.070312 8.7461 0.83984 48.703-37.438 84.598-81.098 80.75-77.25 82.918-82.008 2.8672-6.1562 2.8672-13.016 0-19.172-2.168-4.7578 1.6797-0.91016-82.918-82.008-38.625-37.016-38.766-37.086-47.23-37.574-2.3086-0.14062-5.457 0.070313-6.9258 0.41797z"/>
</svg>
